<?xml version="1.0" encoding="utf-8"?>
<!-- Generator: Adobe Illustrator 28.2.0, SVG Export Plug-In . SVG Version: 6.00 Build 0)  -->
<svg version="1.1" id="Layer_1" xmlns="http://www.w3.org/2000/svg" xmlns:xlink="http://www.w3.org/1999/xlink" x="0px" y="0px"
	 viewBox="0 0 100 100" enable-background="new 0 0 100 100" xml:space="preserve">
<path d="M-182.8,75.5c0-0.1,0-0.2,0-0.2h-14.5c0,0.1,0,0.2,0,0.2c0,0,0,0.1,0,0.1c0,2.7-2.2,4.8-4.8,4.8c-2.7,0-4.8-2.2-4.8-4.8
	c0,0,0-0.1,0-0.1v0c0-0.1,0-0.2,0-0.2h-1.7c-1.5,0-2.7-1-3-2.4l0,0l-9.7-45.7l-8.2-1.4c-1.4-0.3-2.5-1.5-2.5-3
	c0-1.7,1.4-3.1,3.1-3.1c0.1,0,0.3,0,0.4,0l0,0l10.3,1.7c1.3,0.2,2.2,1.2,2.5,2.4l0,0l1.7,8.3l30.1,2.5c-0.2,0.9-0.3,1.9-0.3,3v0v0
	c0,1,0.1,2,0.3,3l0-0.1c-1.4,0.5-2.5,1.8-2.5,3.4c0,0.2,0,0.5,0.1,0.7l0,0l1.8,13.1c0.1,0.8,0.5,1.6,1.1,2.1c0.5,0.5,1.2,0.8,2,0.8
	h0c0.2,0,0.3,0,0.5,0l0,0c1.5-0.4,2.6-1.8,2.6-3.4c0-0.2,0-0.5-0.1-0.7l0,0l-1-7.1c3.1,3.2,7.4,5.2,12.2,5.2c0.1,0,0.2,0,0.3,0
	l0.2,0l-1.7,9.9c-0.1,0.5-0.5,0.9-1,0.9h0h-37.6l0.8,3.9h35.8c1.7,0.1,3,1.4,3,3.1c0,1.7-1.3,3-3,3.1h0h-2.9c0,0.1,0,0.2,0,0.2
	c0,2.7-2.2,4.8-4.8,4.8C-180.6,80.3-182.8,78.1-182.8,75.5L-182.8,75.5z M-179.3,75.5c0,0.8,0.6,1.4,1.4,1.4c0.8,0,1.4-0.6,1.4-1.4
	c0-0.1,0-0.2,0-0.2v0h-2.7C-179.3,75.3-179.3,75.4-179.3,75.5L-179.3,75.5z M-203.4,75.5c0,0.8,0.6,1.4,1.4,1.4
	c0.8,0,1.4-0.6,1.4-1.4c0-0.1,0-0.2,0-0.2v0h-2.7C-203.4,75.3-203.4,75.4-203.4,75.5L-203.4,75.5L-203.4,75.5z M-193.6,40.4
	c-1.5,0.4-2.6,1.8-2.6,3.4c0,0.2,0,0.5,0.1,0.7l0,0l1.8,13.1c0.1,0.8,0.5,1.6,1.1,2.1c0.5,0.5,1.2,0.8,2,0.8h0c0.2,0,0.3,0,0.5,0
	l0,0c1.5-0.4,2.6-1.8,2.6-3.4c0-0.2,0-0.5-0.1-0.7l0,0l-1.8-13.1c-0.1-0.8-0.5-1.6-1.1-2.1c-0.5-0.5-1.2-0.8-2-0.8h0
	C-193.3,40.3-193.5,40.4-193.6,40.4L-193.6,40.4L-193.6,40.4z M-203.7,40.4c-1.5,0.4-2.6,1.8-2.6,3.4c0,0.2,0,0.5,0.1,0.7l0,0
	l1.8,13.1c0.1,0.8,0.5,1.6,1.1,2.1c0.5,0.5,1.2,0.8,2,0.8h0c0.2,0,0.3,0,0.5,0l0,0c1.5-0.4,2.6-1.8,2.6-3.4c0-0.2,0-0.5-0.1-0.7l0,0
	l-1.8-13.1c-0.1-0.8-0.5-1.6-1.1-2.1c-0.5-0.5-1.2-0.8-2-0.8h0C-203.3,40.3-203.5,40.4-203.7,40.4L-203.7,40.4z M-181.4,37.5
	c0-7.9,6.4-14.4,14.4-14.4s14.4,6.4,14.4,14.4s-6.4,14.4-14.4,14.4C-175,51.9-181.4,45.5-181.4,37.5L-181.4,37.5z M-177.3,37.5
	c0,5.7,4.6,10.2,10.2,10.2c5.7,0,10.2-4.6,10.2-10.2s-4.6-10.2-10.2-10.2C-172.7,27.3-177.3,31.9-177.3,37.5L-177.3,37.5z
	 M-163.3,39.3h-7.6c-1,0-1.8-0.8-1.8-1.8v0c0-1,0.8-1.8,1.8-1.8h7.6c1,0,1.8,0.8,1.8,1.8v0C-161.5,38.5-162.3,39.3-163.3,39.3z
	 M-165.3,33.7v7.6c0,1-0.8,1.8-1.8,1.8h0c-1,0-1.8-0.8-1.8-1.8v-7.6c0-1,0.8-1.8,1.8-1.8h0C-166.1,31.9-165.3,32.7-165.3,33.7z"/>
<path d="M-62.8,75.5c0-0.1,0-0.2,0-0.2h-14.5c0,0.1,0,0.2,0,0.2c0,0,0,0.1,0,0.1c0,2.7-2.2,4.8-4.8,4.8s-4.8-2.2-4.8-4.8
	c0,0,0-0.1,0-0.1v0c0-0.1,0-0.2,0-0.2h-1.7c-1.5,0-2.7-1-3-2.4l0,0l-9.7-45.7l-8.2-1.4c-1.4-0.3-2.5-1.5-2.5-3
	c0-1.7,1.4-3.1,3.1-3.1c0.1,0,0.3,0,0.4,0l0,0l10.3,1.7c1.3,0.2,2.2,1.2,2.5,2.4l0,0l1.7,8.3l30.1,2.5c-0.2,0.9-0.3,1.9-0.3,3v0v0
	c0,1,0.1,2,0.3,3l0-0.1c-1.4,0.5-2.5,1.8-2.5,3.4c0,0.2,0,0.5,0.1,0.7l0,0l1.8,13.1c0.1,0.8,0.5,1.6,1.1,2.1c0.5,0.5,1.2,0.8,2,0.8
	h0c0.2,0,0.3,0,0.5,0l0,0c1.5-0.4,2.6-1.8,2.6-3.4c0-0.2,0-0.5-0.1-0.7l0,0l-1-7.1c3.1,3.2,7.4,5.2,12.2,5.2c0.1,0,0.2,0,0.3,0
	l0.2,0l-1.7,9.9c-0.1,0.5-0.5,0.9-1,0.9h0h-37.6l0.8,3.9h35.8c1.7,0.1,3,1.4,3,3.1c0,1.7-1.3,3-3,3.1h0h-2.9c0,0.1,0,0.2,0,0.2
	c0,2.7-2.2,4.8-4.8,4.8S-62.8,78.1-62.8,75.5L-62.8,75.5z M-59.3,75.5c0,0.8,0.6,1.4,1.4,1.4c0.8,0,1.4-0.6,1.4-1.4
	c0-0.1,0-0.2,0-0.2v0h-2.7C-59.3,75.3-59.3,75.4-59.3,75.5L-59.3,75.5z M-83.4,75.5c0,0.8,0.6,1.4,1.4,1.4s1.4-0.6,1.4-1.4
	c0-0.1,0-0.2,0-0.2v0h-2.7C-83.4,75.3-83.4,75.4-83.4,75.5L-83.4,75.5L-83.4,75.5z M-73.6,40.4c-1.5,0.4-2.6,1.8-2.6,3.4
	c0,0.2,0,0.5,0.1,0.7l0,0l1.8,13.1c0.1,0.8,0.5,1.6,1.1,2.1c0.5,0.5,1.2,0.8,2,0.8h0c0.2,0,0.3,0,0.5,0l0,0c1.5-0.4,2.6-1.8,2.6-3.4
	c0-0.2,0-0.5-0.1-0.7l0,0l-1.8-13.1c-0.1-0.8-0.5-1.6-1.1-2.1c-0.5-0.5-1.2-0.8-2-0.8h0C-73.3,40.3-73.5,40.4-73.6,40.4L-73.6,40.4
	L-73.6,40.4z M-83.7,40.4c-1.5,0.4-2.6,1.8-2.6,3.4c0,0.2,0,0.5,0.1,0.7l0,0l1.8,13.1c0.1,0.8,0.5,1.6,1.1,2.1
	c0.5,0.5,1.2,0.8,2,0.8h0c0.2,0,0.3,0,0.5,0l0,0c1.5-0.4,2.6-1.8,2.6-3.4c0-0.2,0-0.5-0.1-0.7l0,0l-1.8-13.1
	c-0.1-0.8-0.5-1.6-1.1-2.1c-0.5-0.5-1.2-0.8-2-0.8h0C-83.3,40.3-83.5,40.4-83.7,40.4L-83.7,40.4z M-61.4,37.5
	c0-7.9,6.4-14.4,14.4-14.4s14.4,6.4,14.4,14.4s-6.4,14.4-14.4,14.4C-55,51.9-61.4,45.5-61.4,37.5L-61.4,37.5z M-57.3,37.5
	c0,5.7,4.6,10.2,10.2,10.2s10.2-4.6,10.2-10.2s-4.6-10.2-10.2-10.2C-52.7,27.3-57.3,31.9-57.3,37.5L-57.3,37.5z M-43.3,39.3h-7.6
	c-1,0-1.8-0.8-1.8-1.8v0c0-1,0.8-1.8,1.8-1.8h7.6c1,0,1.8,0.8,1.8,1.8v0C-41.5,38.5-42.3,39.3-43.3,39.3z"/>
<g id="basket">
	<path d="M57.2,75.5c0-0.1,0-0.2,0-0.2H42.8c0,0.1,0,0.2,0,0.2c0,0,0,0.1,0,0.1c0,2.7-2.2,4.8-4.8,4.8c-2.7,0-4.8-2.2-4.8-4.8
		c0,0,0-0.1,0-0.1v0c0-0.1,0-0.2,0-0.2h-1.7c-1.5,0-2.7-1-3-2.4l0,0l-9.7-45.7l-8.2-1.4c-1.4-0.3-2.5-1.5-2.5-3
		c0-1.7,1.4-3.1,3.1-3.1c0.1,0,0.3,0,0.4,0l0,0l10.3,1.7c1.3,0.2,2.2,1.2,2.5,2.4l0,0l1.7,8.3l30.1,2.5c-0.2,0.9-0.3,1.9-0.3,3v0v0
		c0,1,0.1,2,0.3,3l0-0.1c-1.4,0.5-2.5,1.8-2.5,3.4c0,0.2,0,0.5,0.1,0.7l0,0l1.8,13.1c0.1,0.8,0.5,1.6,1.1,2.1c0.5,0.5,1.2,0.8,2,0.8
		h0c0.2,0,0.3,0,0.5,0l0,0c1.5-0.4,2.6-1.8,2.6-3.4c0-0.2,0-0.5-0.1-0.7l0,0l-1-7.1c3.1,3.2,7.4,5.2,12.2,5.2c0.1,0,0.2,0,0.3,0
		l0.2,0l-1.7,9.9c-0.1,0.5-0.5,0.9-1,0.9h0H33.2l0.8,3.9h35.8c1.7,0.1,3,1.4,3,3.1c0,1.7-1.3,3-3,3.1h0h-2.9c0,0.1,0,0.2,0,0.2
		c0,2.7-2.2,4.8-4.8,4.8S57.2,78.1,57.2,75.5L57.2,75.5z M60.7,75.5c0,0.8,0.6,1.4,1.4,1.4c0.8,0,1.4-0.6,1.4-1.4c0-0.1,0-0.2,0-0.2
		v0h-2.7C60.7,75.3,60.7,75.4,60.7,75.5L60.7,75.5z M36.6,75.5c0,0.8,0.6,1.4,1.4,1.4s1.4-0.6,1.4-1.4c0-0.1,0-0.2,0-0.2v0h-2.7
		C36.6,75.3,36.6,75.4,36.6,75.5L36.6,75.5L36.6,75.5z M46.4,40.4c-1.5,0.4-2.6,1.8-2.6,3.4c0,0.2,0,0.5,0.1,0.7l0,0l1.8,13.1
		c0.1,0.8,0.5,1.6,1.1,2.1c0.5,0.5,1.2,0.8,2,0.8h0c0.2,0,0.3,0,0.5,0l0,0c1.5-0.4,2.6-1.8,2.6-3.4c0-0.2,0-0.5-0.1-0.7l0,0
		l-1.8-13.1c-0.1-0.8-0.5-1.6-1.1-2.1c-0.5-0.5-1.2-0.8-2-0.8h0C46.7,40.3,46.5,40.4,46.4,40.4L46.4,40.4L46.4,40.4z M36.3,40.4
		c-1.5,0.4-2.6,1.8-2.6,3.4c0,0.2,0,0.5,0.1,0.7l0,0l1.8,13.1c0.1,0.8,0.5,1.6,1.1,2.1c0.5,0.5,1.2,0.8,2,0.8h0c0.2,0,0.3,0,0.5,0
		l0,0c1.5-0.4,2.6-1.8,2.6-3.4c0-0.2,0-0.5-0.1-0.7l0,0l-1.8-13.1c-0.1-0.8-0.5-1.6-1.1-2.1c-0.5-0.5-1.2-0.8-2-0.8h0
		C36.7,40.3,36.5,40.4,36.3,40.4L36.3,40.4z"/>
	<path fill="#FF0000" d="M58.6,37.5c0-7.9,6.4-14.4,14.4-14.4s14.4,6.4,14.4,14.4s-6.4,14.4-14.4,14.4C65,51.9,58.6,45.5,58.6,37.5
		L58.6,37.5z"/>
</g>
<text id="products" transform="matrix(1 0 0 1 63.9926 45.1151)" fill="#FFFFFF" font-family="'Impact'" font-size="19.4713px">10</text>
</svg>
