<?xml version="1.0" encoding="iso-8859-1"?>
<!-- Uploaded to: SVG Repo, www.svgrepo.com, Generator: SVG Repo Mixer Tools -->
<svg fill="#000000" height="800px" width="800px" version="1.1" id="Layer_1" xmlns="http://www.w3.org/2000/svg" xmlns:xlink="http://www.w3.org/1999/xlink" 
	 viewBox="0 0 511.998 511.998" xml:space="preserve">
<g>
	<g>
		<path d="M74.98,109.022C26.629,157.374,0,221.661,0,290.039c0,22.592,2.924,44.73,8.56,66.001l18.733-24.383l20.337-26.471
			L216.986,84.753l20.287-26.405l18.677-24.306C187.587,34.055,123.319,60.683,74.98,109.022z"/>
	</g>
</g>
<g>
	<g>
		<path d="M437.017,109.02c-9.53-9.53-19.687-18.203-30.364-26.006l-14.359,18.689l-14.343,18.669l-30.601,39.831l116.454,151.579
			l19.766,25.727l18.378,23.92c6.614-22.909,10.051-46.883,10.051-71.387C512.002,221.661,485.371,157.372,437.017,109.02z"/>
	</g>
</g>
<g>
	<g>
		<path d="M310.82,39.906l-16.068,20.913l-16.504,21.483L60.936,365.151l-16.457,21.42L28.41,407.485
			c8.872,17.148,19.736,33.342,32.478,48.292l14.695-19.129l161.762-210.547l99.098-128.986l14.751-19.198l14.755-19.206
			C348.397,50.357,329.923,44.051,310.82,39.906z"/>
	</g>
</g>
<g>
	<g>
		<path d="M465.384,391.121l-16.246-21.147L317.663,198.846l-31.975,41.619l-14.844,19.32L256,279.106l145.704,189.651
			c4.128,5.374,10.373,8.709,17.135,9.15c0.512,0.033,1.023,0.049,1.535,0.049c6.221,0,12.217-2.466,16.644-6.896
			c17.782-17.782,32.615-37.725,44.276-59.228L465.384,391.121z"/>
	</g>
</g>
</svg>